<svg width="30" height="30" viewBox="0 0 30 30" fill="none" xmlns="http://www.w3.org/2000/svg">
	<path fill-rule="evenodd" clip-rule="evenodd" d="M21.25 18.75C21.4972 18.7499 21.7388 18.6766 21.9443 18.5392C22.1498 18.4019 22.31 18.2067 22.4046 17.9783C22.4992 17.7499 22.5239 17.4986 22.4757 17.2562C22.4275 17.0137 22.3085 16.791 22.1337 16.6162L15.8837 10.3662C15.6493 10.1319 15.3314 10.0002 15 10.0002C14.6685 10.0002 14.3506 10.1319 14.1162 10.3662L7.86623 16.6162C7.69147 16.791 7.57246 17.0137 7.52425 17.2562C7.47604 17.4986 7.50079 17.7499 7.59538 17.9783C7.68997 18.2067 7.85014 18.4019 8.05565 18.5392C8.26117 18.6766 8.50279 18.7499 8.74998 18.75H21.25Z" fill="#F2F2F2"/>
</svg>