<svg width="30" height="30" viewBox="0 0 100 100" fill="none" xmlns="http://www.w3.org/2000/svg">
	<path d="M15.7812 93.4374L20.3812 92.2062L21.6125 89.5343L29.5812 89.7437L37.8719 87.5249L39.7406 84.6312L47.4969 84.9499L55.5937 82.7812C61.2187 81.2812 63.125 74.2187 59 70.0937L29.875 40.9374C25.75 36.8124 18.6875 38.6874 17.1875 44.3437L14.7719 53.3655L15.1094 60.6905L12.3594 62.3843L9.89062 71.6062L10.3031 78.6312L7.60625 80.1437L6.53125 84.1562C5 89.7812 10.1562 94.9374 15.7812 93.4374Z" fill="#F9C23C"/>
	<path d="M24.375 78.2907C19.75 73.9688 15.8125 68.7688 12.3313 62.4844L14.7625 53.4094C18.7563 62.1532 23.25 68.6875 28.6406 73.7219C33.8375 78.575 39.9938 82.15 47.6094 84.9188L37.8344 87.5344C32.8281 85.0438 28.375 82.0219 24.3781 78.2907M13.3969 87.1438C11.186 85.0628 9.23918 82.7182 7.60001 80.1626L9.92813 71.4657C12.125 76.1219 14.5844 79.6969 17.6656 82.5813C20.7406 85.4563 24.5656 87.7657 29.6594 89.7219L20.3188 92.2219C17.8225 90.8031 15.4997 89.0989 13.3969 87.1438Z" fill="#3F5FFF"/>
	<path d="M59.7188 80.2813C64.0938 75.9063 58.6563 63.4063 47.5938 52.3438C36.5313 41.2813 24.0625 35.8438 19.6875 40.2188C15.3125 44.5938 20.75 57.0938 31.8125 68.1563C42.875 79.2188 55.375 84.6251 59.7188 80.2813Z" fill="#6D4534"/>
	<path d="M36.2812 22.7188C38.192 26.2752 39.3751 30.1767 39.7615 34.1955C40.1478 38.2142 39.7296 42.2697 38.5313 46.125C36.5311 52.7406 32.3302 58.4741 26.625 62.375C25 60.3438 23.5938 58.3125 22.4063 56.3438C26.759 53.3755 29.9674 49.0095 31.5 43.9688C33.3437 38 32.75 31.6875 29.8125 26.1875C28.8438 24.375 29.5313 22.1563 31.3125 21.2188C33.125 20.25 35.3437 20.9375 36.2812 22.7188ZM69.2187 52.2281C72.0243 50.01 75.3551 48.5539 78.8886 48.001C82.422 47.448 86.0384 47.8169 89.3875 49.0719C89.7907 49.2221 90.2195 49.2914 90.6495 49.2759C91.0795 49.2603 91.5022 49.1603 91.8935 48.9814C92.2848 48.8025 92.6371 48.5483 92.9302 48.2332C93.2232 47.9182 93.4514 47.5485 93.6016 47.1453C93.7518 46.7421 93.8211 46.3133 93.8055 45.8833C93.79 45.4533 93.6899 45.0306 93.511 44.6393C93.3321 44.248 93.0779 43.8957 92.7629 43.6027C92.4479 43.3096 92.0782 43.0815 91.675 42.9313C87.2708 41.2834 82.5157 40.8001 77.87 41.5282C73.2243 42.2564 68.8451 44.1712 65.1562 47.0875C64.8187 47.3543 64.537 47.6849 64.3273 48.0605C64.1175 48.4361 63.9838 48.8494 63.9337 49.2767C63.8836 49.704 63.9182 50.1369 64.0355 50.5508C64.1528 50.9648 64.3504 51.3515 64.6172 51.6891C64.8839 52.0266 65.2146 52.3083 65.5902 52.5181C65.9658 52.7278 66.379 52.8616 66.8063 52.9116C67.2336 52.9617 67.6666 52.9271 68.0805 52.8098C68.4944 52.6925 68.8812 52.4949 69.2187 52.2281ZM18.7813 30.2813C19.7427 30.2813 20.6647 29.8994 21.3445 29.2195C22.0243 28.5397 22.4063 27.6177 22.4063 26.6563C22.4063 25.6949 22.0243 24.7728 21.3445 24.093C20.6647 23.4132 19.7427 23.0313 18.7813 23.0313C17.8198 23.0313 16.8978 23.4132 16.218 24.093C15.5382 24.7728 15.1562 25.6949 15.1562 26.6563C15.1562 27.6177 15.5382 28.5397 16.218 29.2195C16.8978 29.8994 17.8198 30.2813 18.7813 30.2813ZM81.6562 26.6563C81.6562 27.6177 81.2743 28.5397 80.5945 29.2195C79.9147 29.8994 78.9927 30.2813 78.0312 30.2813C77.0698 30.2813 76.1478 29.8994 75.468 29.2195C74.7882 28.5397 74.4062 27.6177 74.4062 26.6563C74.4062 25.6949 74.7882 24.7728 75.468 24.093C76.1478 23.4132 77.0698 23.0313 78.0312 23.0313C78.9927 23.0313 79.9147 23.4132 80.5945 24.093C81.2743 24.7728 81.6562 25.6949 81.6562 26.6563Z" fill="#F70A8D"/>
	<path d="M39.0313 12.375C39.0313 13.1706 38.7152 13.9337 38.1526 14.4963C37.59 15.0589 36.8269 15.375 36.0313 15.375C35.2356 15.375 34.4725 15.0589 33.9099 14.4963C33.3473 13.9337 33.0312 13.1706 33.0312 12.375C33.0312 11.5794 33.3473 10.8163 33.9099 10.2537C34.4725 9.69107 35.2356 9.375 36.0313 9.375C36.8269 9.375 37.59 9.69107 38.1526 10.2537C38.7152 10.8163 39.0313 11.5794 39.0313 12.375ZM79.625 76.2812C79.625 77.0852 79.3056 77.8562 78.7372 78.4247C78.1687 78.9931 77.3977 79.3125 76.5938 79.3125C75.7898 79.3125 75.0188 78.9931 74.4503 78.4247C73.8819 77.8562 73.5625 77.0852 73.5625 76.2812C73.5625 75.4773 73.8819 74.7063 74.4503 74.1378C75.0188 73.5694 75.7898 73.25 76.5938 73.25C77.3977 73.25 78.1687 73.5694 78.7372 74.1378C79.3056 74.7063 79.625 75.4773 79.625 76.2812Z" fill="#F9C23C"/>
	<path d="M67.5937 12.5624C67.0927 12.1132 66.4532 11.8486 65.7812 11.8124C64.9707 11.7695 64.1757 12.0468 63.5677 12.5847C62.9598 13.1225 62.5875 13.8777 62.5313 14.6874C62.3125 18.1249 59.9375 24.3437 59.0312 26.4374C59.0312 26.4531 59.0219 26.4687 59.0156 26.4843C58.8441 26.9117 58.6596 27.3338 58.4625 27.7499C57.3647 26.3916 55.8874 25.3908 54.2188 24.8749L54.125 24.8437C49.9062 23.4374 45.3125 25.7187 43.9063 29.9687C43.2188 32.0312 43.375 34.2187 44.3437 36.1562C45.3125 38.0937 46.9687 39.5312 49.0312 40.2187C49.25 40.2937 49.4781 40.3406 49.7 40.3593C51.2813 40.7874 52.8094 40.8031 54.2781 40.4062C54.1891 40.8366 54.0859 41.2639 53.9688 41.6874C53.5313 43.3124 54.5 44.9999 56.125 45.4374C56.9081 45.6469 57.7424 45.5376 58.4452 45.1335C59.1479 44.7294 59.662 44.0634 59.875 43.2812C60.576 40.758 60.8848 38.142 60.7906 35.5249C62.4156 33.4874 63.7156 31.2437 64.6875 28.8124L64.7344 28.6999C65.3125 27.2999 68.3531 19.9437 68.6562 15.0312C68.6875 14.0624 68.2812 13.1562 67.5937 12.5624ZM52.3438 30.6562C53.2031 30.9437 54.0875 31.4249 54.4625 33.3937C52.925 34.8218 51.9375 34.6656 51.0625 34.3749C50.9579 34.3401 50.8515 34.3109 50.7438 34.2874C50.3468 34.0971 50.0286 33.7745 49.8437 33.3749C49.721 33.1464 49.649 32.8941 49.6328 32.6352C49.6166 32.3763 49.6566 32.117 49.75 31.8749C50.0938 30.8437 51.2187 30.2812 52.25 30.6249L52.3438 30.6562ZM57.0938 56.7499C67.75 53.7812 78.9063 55.1249 88.5312 60.5624C90.3125 61.5937 90.9375 63.8124 89.9688 65.5624C88.9688 67.3437 86.7188 67.9687 84.9375 66.9687C81.048 64.7711 76.7626 63.3637 72.3274 62.8274C67.8923 62.2911 63.395 62.6365 59.0937 63.8437C51.875 65.8437 45.6875 70.0937 41.2187 75.9687C39.3125 74.6562 37.3438 73.1562 35.4062 71.4687C40.8125 64.3749 48.3438 59.1874 57.0938 56.7499ZM51.95 53.0781C51.95 54.0312 51.5714 54.9453 50.8974 55.6192C50.2235 56.2932 49.3094 56.6718 48.3563 56.6718C47.4031 56.6718 46.489 56.2932 45.8151 55.6192C45.1411 54.9453 44.7625 54.0312 44.7625 53.0781C44.7625 52.1249 45.1411 51.2109 45.8151 50.5369C46.489 49.8629 47.4031 49.4843 48.3563 49.4843C49.3094 49.4843 50.2235 49.8629 50.8974 50.5369C51.5714 51.2109 51.95 52.1249 51.95 53.0781Z" fill="#00A6ED"/>
</svg>