<svg width="60" height="60" viewBox="0 0 60 60" fill="none" xmlns="http://www.w3.org/2000/svg">
<path fill-rule="evenodd" clip-rule="evenodd" d="M51.416 11.416C51.602 11.2301 51.7495 11.0093 51.8501 10.7664C51.9508 10.5234 52.0025 10.263 52.0025 10C52.0025 9.73705 51.9508 9.47665 51.8501 9.23369C51.7495 8.99073 51.602 8.76998 51.416 8.58402C51.2301 8.39807 51.0093 8.25057 50.7664 8.14993C50.5234 8.04929 50.263 7.9975 50 7.9975C49.737 7.9975 49.4766 8.04929 49.2337 8.14993C48.9907 8.25057 48.77 8.39807 48.584 8.58402L30 27.172L11.416 8.58402C11.2301 8.39807 11.0093 8.25057 10.7664 8.14993C10.5234 8.04929 10.263 7.9975 10 7.9975C9.73705 7.9975 9.47665 8.04929 9.23369 8.14993C8.99073 8.25057 8.76998 8.39807 8.58402 8.58402C8.39807 8.76998 8.25057 8.99073 8.14993 9.23369C8.04929 9.47665 7.9975 9.73705 7.9975 10C7.9975 10.263 8.04929 10.5234 8.14993 10.7664C8.25057 11.0093 8.39807 11.2301 8.58402 11.416L27.172 30L8.58402 48.584C8.20848 48.9596 7.9975 49.4689 7.9975 50C7.9975 50.5311 8.20848 51.0405 8.58402 51.416C8.95957 51.7916 9.46892 52.0025 10 52.0025C10.5311 52.0025 11.0405 51.7916 11.416 51.416L30 32.828L48.584 51.416C48.9596 51.7916 49.4689 52.0025 50 52.0025C50.5311 52.0025 51.0405 51.7916 51.416 51.416C51.7916 51.0405 52.0025 50.5311 52.0025 50C52.0025 49.4689 51.7916 48.9596 51.416 48.584L32.828 30L51.416 11.416Z" fill="#F24E1E"/>
</svg>
